<svg id="SvgjsSvg1001" width="288" height="288" xmlns="http://www.w3.org/2000/svg" version="1.1" xmlns:xlink="http://www.w3.org/1999/xlink" xmlns:svgjs="http://svgjs.com/svgjs"><defs id="SvgjsDefs1002"></defs><g id="SvgjsG1008"><svg xmlns="http://www.w3.org/2000/svg" enable-background="new 0 0 512 512" version="1.0" viewBox="0 0 512 512" width="288" height="288"><path fill="#fff" fill-rule="evenodd" d="M318.969,371.275l130.073-75.097c35.719-20.622,66.893,33.38,31.174,53.997l-170.043,98.172
			c-11.9,6.872-24.604,8.513-37.859,4.897l-95.609-26.095c-10.619-2.897-20.9-1.206-30.031,4.939l-16.419,11.052l-48.921-99.65
			l88.345-47.971c12.615-6.85,25.982-8.128,39.666-3.791l88.499,28.043c30.126,9.546,19.412,54.828-11.772,49.927l11.829,3.816
			C305.181,375.859,312.345,375.099,318.969,371.275z" clip-rule="evenodd" class="svgShape colorffffff-0 selectable"></path><path fill-rule="evenodd" d="M315.744,365.664l130.054-75.086c13.557-7.828,28.664-7.578,41.13,2.199
			c19.415,15.225,23.27,47.564-3.487,63.009l-170.024,98.162c-13.323,7.694-27.96,9.593-42.804,5.543l-95.609-26.095
			c-8.783-2.397-17.158-1.017-24.724,4.075l-16.419,11.052c-3.274,2.199-7.77,1.042-9.548-2.8L75.52,346.333
			c-1.521-3.11-0.326-6.877,2.717-8.531l88.345-47.971c14.138-7.678,29.408-9.151,44.719-4.299l88.499,28.043
			c25.321,8.024,28.306,37.35,13.378,53.355C314.042,366.574,314.898,366.152,315.744,365.664L315.744,365.664z M225.497,355.707
			c-3.393-1.164-5.201-4.859-4.037-8.252c1.164-3.394,4.859-5.201,8.252-4.037l57.968,19.962c22.85,2.949,30.501-30.351,8.21-37.414
			l-88.499-28.043c-12.04-3.815-23.537-2.731-34.613,3.283l-82.893,45.011l42.909,87.405c9.042-6.087,16.251-11.976,27.297-13.793
			c5.941-0.977,12.087-0.626,18.316,1.074l95.609,26.095c11.552,3.152,22.543,1.738,32.914-4.251l170.061-98.184
			c28.216-16.288,3.125-59.23-24.725-42.773l-130.073,75.097c-8.223,4.747-17.244,5.707-26.272,2.797
			C272.313,372.067,248.956,363.785,225.497,355.707z" clip-rule="evenodd" fill="#000000" class="svgShape color000000-1 selectable"></path><path fill="#000000" fill-rule="evenodd" d="M73.575,319.938l78.61,136.157c4.339,7.516,1.741,17.217-5.776,21.557l-28.154,16.255
			c-7.517,4.34-17.217,1.74-21.556-5.776l-78.61-136.157c-4.339-7.516-1.741-17.217,5.776-21.556l28.155-16.255
			C59.536,309.823,69.236,312.423,73.575,319.938z" clip-rule="evenodd" class="svgShape color81b6dd-2 selectable"></path><path fill-rule="evenodd" d="M157.797,452.871c6.258,10.839,2.235,24.812-8.497,30.586l-27.821,16.062
			c-10.639,6.142-24.268,2.47-30.392-8.137l-78.61-136.157c-6.134-10.625-2.481-24.275,8.137-30.418l28.155-16.255
			c10.635-6.14,24.274-2.487,30.418,8.138C105.447,362.047,131.591,407.48,157.797,452.871L157.797,452.871z M146.574,459.321
			l-78.61-136.132c-2.553-4.417-8.303-5.95-12.695-3.415l-28.155,16.255c-4.377,2.586-5.974,8.262-3.414,12.695l78.61,136.157
			c2.555,4.425,8.328,5.951,12.72,3.415l28.13-16.255C147.587,469.482,149.11,463.712,146.574,459.321z" clip-rule="evenodd" fill="#000000" class="svgShape color000000-3 selectable"></path><g><path fill="#ffffff" fill-rule="evenodd" d="M255.997,15.987l101.494,44.222v79.905c0,62.795-43.286,115.969-101.494,131.162
			c-58.208-15.193-101.495-68.366-101.495-131.162V60.209L255.997,15.987z" clip-rule="evenodd" class="svgShape color81b6dd-5 selectable"></path><path fill-rule="evenodd" d="M258.587,10.046l101.494,44.222c2.363,1.029,3.909,3.361,3.91,5.942v79.904
			c0,64.84-44.5,121.341-106.369,137.434c-1.155,0.3-2.318,0.267-3.388-0.037c-30.79-8.07-57.582-26.272-76.55-50.784
			c-18.59-24.024-29.682-54.093-29.682-86.613V60.209c0-2.848,1.831-5.268,4.381-6.147l101.024-44.017
			C255.126,9.296,256.993,9.351,258.587,10.046L258.587,10.046z M350.991,64.446l-94.993-41.389l-94.994,41.389v75.667
			c0,29.569,10.067,56.886,26.94,78.691c16.939,21.891,40.723,38.242,68.054,45.763c27.332-7.521,51.115-23.872,68.054-45.763
			c16.872-21.804,26.939-49.122,26.939-78.691V64.446z" clip-rule="evenodd" fill="#000000" class="svgShape color000000-6 selectable"></path><path fill-rule="evenodd" d="M190.353,155.998c-2.538-2.538-2.538-6.654,0-9.192c2.538-2.538,6.654-2.538,9.192,0l30.923,30.923
			l81.982-81.982c2.538-2.538,6.654-2.538,9.192,0c2.538,2.538,2.538,6.654,0,9.192l-86.578,86.578
			c-2.538,2.538-6.654,2.538-9.192,0L190.353,155.998z" clip-rule="evenodd" fill="#000000" class="svgShape color000000-7 selectable"></path></g></svg></g></svg>